<?xml version="1.0" encoding="UTF-8" standalone="no"?>
<!-- Created with Inkscape (http://www.inkscape.org/) -->

<svg
   xmlns:dc="http://purl.org/dc/elements/1.1/"
   xmlns:cc="http://creativecommons.org/ns#"
   xmlns:rdf="http://www.w3.org/1999/02/22-rdf-syntax-ns#"
   xmlns:svg="http://www.w3.org/2000/svg"
   xmlns="http://www.w3.org/2000/svg"
   xmlns:xlink="http://www.w3.org/1999/xlink"
   xmlns:sodipodi="http://sodipodi.sourceforge.net/DTD/sodipodi-0.dtd"
   xmlns:inkscape="http://www.inkscape.org/namespaces/inkscape"
   viewBox="0 0 1000 600"
   id="svg2"
   sodipodi:version="0.32"
   inkscape:version="0.91 r13725"
   version="1.0"
   sodipodi:docname="controller.svg"
   inkscape:output_extension="org.inkscape.output.svg.inkscape"
   inkscape:export-filename="C:\Users\Admin\Desktop\snes_ink.bmp.png"
   inkscape:export-xdpi="81"
   inkscape:export-ydpi="81"
   style="enable-background:new">
  <sodipodi:namedview
     id="base"
     pagecolor="#7f7f7f"
     bordercolor="#666666"
     borderopacity="1.0"
     gridtolerance="10000"
     guidetolerance="10"
     objecttolerance="10"
     inkscape:pageopacity="0.94901961"
     inkscape:pageshadow="2"
     inkscape:zoom="0.70710678"
     inkscape:cx="462.55021"
     inkscape:cy="349.89379"
     inkscape:document-units="px"
     inkscape:current-layer="layer1"
     showgrid="true"
     width="800px"
     inkscape:showpageshadow="false"
     inkscape:snap-global="false"
     showguides="false"
     inkscape:window-width="1366"
     inkscape:window-height="706"
     inkscape:window-x="-8"
     inkscape:window-y="653"
     showborder="false"
     inkscape:window-maximized="1">
    <inkscape:grid
       enabled="true"
       visible="true"
       id="grid3157"
       type="xygrid" />
  </sodipodi:namedview>
  <defs
     id="defs4">
    <linearGradient
       id="linearGradient3566">
      <stop
         style="stop-color:#f0f0ec;stop-opacity:1;"
         offset="0"
         id="stop3568" />
      <stop
         style="stop-color:#babab7;stop-opacity:1;"
         offset="1"
         id="stop3570" />
    </linearGradient>
    <linearGradient
       id="linearGradient4966">
      <stop
         style="stop-color:#00dea5;stop-opacity:1;"
         offset="0"
         id="stop4968" />
      <stop
         style="stop-color:#00f8b9;stop-opacity:1;"
         offset="1"
         id="stop4970" />
    </linearGradient>
    <linearGradient
       id="linearGradient4907">
      <stop
         id="stop4909"
         offset="0"
         style="stop-color:#8d8d8c;stop-opacity:1" />
      <stop
         style="stop-color:#f6f6f4;stop-opacity:1"
         offset="0.25416961"
         id="stop4911" />
      <stop
         id="stop4913"
         offset="1"
         style="stop-color:#f3f3ef;stop-opacity:1;" />
    </linearGradient>
    <linearGradient
       id="linearGradient4899">
      <stop
         id="stop4901"
         offset="0"
         style="stop-color:#dcdcd9;stop-opacity:1;" />
      <stop
         style="stop-color:#f0f0ee;stop-opacity:1;"
         offset="0.65597826"
         id="stop4903" />
      <stop
         id="stop4905"
         offset="1"
         style="stop-color:#f3f3ef;stop-opacity:1;" />
    </linearGradient>
    <linearGradient
       id="linearGradient4887">
      <stop
         style="stop-color:#5b5b5a;stop-opacity:1;"
         offset="0"
         id="stop4889" />
      <stop
         id="stop4897"
         offset="0.31944445"
         style="stop-color:#5d5d5d;stop-opacity:1;" />
      <stop
         style="stop-color:#f9f9f9;stop-opacity:1;"
         offset="1"
         id="stop4891" />
    </linearGradient>
    <linearGradient
       id="linearGradient4841">
      <stop
         style="stop-color:#d3d3d3;stop-opacity:1;"
         offset="0"
         id="stop4843" />
      <stop
         id="stop4849"
         offset="0.53977019"
         style="stop-color:#ededed;stop-opacity:1;" />
      <stop
         style="stop-color:#4d4d4d;stop-opacity:1;"
         offset="1"
         id="stop4845" />
    </linearGradient>
    <linearGradient
       id="linearGradient4831">
      <stop
         style="stop-color:#000000;stop-opacity:1;"
         offset="0"
         id="stop4833" />
      <stop
         id="stop4839"
         offset="0.15277778"
         style="stop-color:#c5c5c5;stop-opacity:0.49803922;" />
      <stop
         style="stop-color:#7c7c7c;stop-opacity:0;"
         offset="1"
         id="stop4835" />
    </linearGradient>
    <linearGradient
       id="linearGradient4821">
      <stop
         id="stop4825"
         offset="0"
         style="stop-color:#adadad;stop-opacity:0" />
      <stop
         style="stop-color:#b0b0ae;stop-opacity:0.36470589;"
         offset="1"
         id="stop4827" />
      <stop
         style="stop-color:#151514;stop-opacity:0.71764708;"
         offset="1"
         id="stop4829" />
    </linearGradient>
    <linearGradient
       id="linearGradient4811">
      <stop
         id="stop4815"
         offset="0"
         style="stop-color:#121212;stop-opacity:0.78899086;" />
      <stop
         style="stop-color:#1e1e1e;stop-opacity:0.78899086;"
         offset="1"
         id="stop4817" />
      <stop
         style="stop-color:#151514;stop-opacity:0.71764708;"
         offset="1"
         id="stop4819" />
    </linearGradient>
    <linearGradient
       id="linearGradient4783">
      <stop
         id="stop4785"
         offset="0"
         style="stop-color:#565655;stop-opacity:1;" />
      <stop
         style="stop-color:#adadad;stop-opacity:0.10588236;"
         offset="0.1918046"
         id="stop4787" />
      <stop
         id="stop4789"
         offset="1"
         style="stop-color:#b0b0ae;stop-opacity:0.36470589;" />
      <stop
         id="stop4791"
         offset="1"
         style="stop-color:#151514;stop-opacity:0.71764708;" />
    </linearGradient>
    <linearGradient
       id="linearGradient4717">
      <stop
         style="stop-color:#2a2d2e;stop-opacity:1;"
         offset="0"
         id="stop4719" />
      <stop
         id="stop4725"
         offset="0.98000002"
         style="stop-color:#d7d6d7;stop-opacity:1;" />
      <stop
         style="stop-color:#000000;stop-opacity:1;"
         offset="0.99000001"
         id="stop4731" />
      <stop
         style="stop-color:#859094;stop-opacity:1;"
         offset="1"
         id="stop4721" />
    </linearGradient>
    <linearGradient
       id="linearGradient4234">
      <stop
         style="stop-color:#8f8f8d;stop-opacity:1;"
         offset="0"
         id="stop4236" />
      <stop
         id="stop4242"
         offset="0.67741656"
         style="stop-color:#737373;stop-opacity:1;" />
      <stop
         style="stop-color:#e1e1df;stop-opacity:1;"
         offset="0.99999994"
         id="stop4244" />
      <stop
         style="stop-color:#151514;stop-opacity:1;"
         offset="1"
         id="stop4238" />
    </linearGradient>
    <linearGradient
       id="linearGradient4218">
      <stop
         style="stop-color:#dcdcd9;stop-opacity:1;"
         offset="0"
         id="stop4220" />
      <stop
         id="stop4226"
         offset="0.78037679"
         style="stop-color:#f0f0ee;stop-opacity:1;" />
      <stop
         style="stop-color:#f3f3ef;stop-opacity:1;"
         offset="1"
         id="stop4222" />
    </linearGradient>
    <linearGradient
       id="linearGradient4154">
      <stop
         style="stop-color:#899194;stop-opacity:1;"
         offset="0"
         id="stop4156" />
      <stop
         id="stop4162"
         offset="1"
         style="stop-color:#5e6667;stop-opacity:1;" />
      <stop
         style="stop-color:#515759;stop-opacity:1;"
         offset="1"
         id="stop4158" />
    </linearGradient>
    <linearGradient
       id="linearGradient4124">
      <stop
         style="stop-color:#303638;stop-opacity:1;"
         offset="0"
         id="stop4126" />
      <stop
         id="stop4132"
         offset="1"
         style="stop-color:#424a4f;stop-opacity:1;" />
    </linearGradient>
    <linearGradient
       id="linearGradient4109">
      <stop
         style="stop-color:#393d3f;stop-opacity:1;"
         offset="0"
         id="stop4111" />
      <stop
         id="stop4117"
         offset="0.3888889"
         style="stop-color:#101112;stop-opacity:1;" />
      <stop
         style="stop-color:#525252;stop-opacity:1;"
         offset="1"
         id="stop4113" />
    </linearGradient>
    <linearGradient
       id="linearGradient4089">
      <stop
         style="stop-color:#f3f3f1;stop-opacity:1;"
         offset="0"
         id="stop4091" />
      <stop
         id="stop4099"
         offset="0.94"
         style="stop-color:#7f7f7e;stop-opacity:1;" />
      <stop
         style="stop-color:#e6e6e3;stop-opacity:1;"
         offset="1"
         id="stop4093" />
    </linearGradient>
    <linearGradient
       id="linearGradient4053">
      <stop
         style="stop-color:#00fdbd;stop-opacity:1;"
         offset="0"
         id="stop4055" />
      <stop
         id="stop4061"
         offset="0.44444445"
         style="stop-color:#00e8ad;stop-opacity:1;" />
      <stop
         style="stop-color:#00d39d;stop-opacity:1;"
         offset="1"
         id="stop4057" />
    </linearGradient>
    <linearGradient
       id="linearGradient4025">
      <stop
         id="stop4051"
         offset="0"
         style="stop-color:#000000;stop-opacity:1;" />
      <stop
         style="stop-color:#dcdcdc;stop-opacity:1;"
         offset="0.3888889"
         id="stop4087" />
      <stop
         id="stop4033"
         offset="1"
         style="stop-color:#eeeee9;stop-opacity:1;" />
    </linearGradient>
    <inkscape:perspective
       id="perspective10"
       inkscape:persp3d-origin="372.04724 : 350.78739 : 1"
       inkscape:vp_z="744.09448 : 526.18109 : 1"
       inkscape:vp_y="0 : 1000 : 0"
       inkscape:vp_x="0 : 526.18109 : 1"
       sodipodi:type="inkscape:persp3d" />
    <radialGradient
       inkscape:collect="always"
       xlink:href="#linearGradient4025"
       id="radialGradient4049"
       cx="170"
       cy="300"
       fx="170"
       fy="300"
       r="96.805557"
       gradientUnits="userSpaceOnUse" />
    <radialGradient
       inkscape:collect="always"
       xlink:href="#linearGradient4089"
       id="radialGradient4107"
       cx="170"
       cy="300"
       fx="170"
       fy="300"
       r="97.111115"
       gradientUnits="userSpaceOnUse" />
    <radialGradient
       inkscape:collect="always"
       xlink:href="#linearGradient4124"
       id="radialGradient4130"
       cx="306.00046"
       cy="299.30283"
       fx="306.00046"
       fy="299.30283"
       r="11.154825"
       gradientUnits="userSpaceOnUse" />
    <radialGradient
       inkscape:collect="always"
       xlink:href="#linearGradient4124"
       id="radialGradient4142"
       gradientUnits="userSpaceOnUse"
       gradientTransform="matrix(1,0,0,1.0280112,0,-7.1062765)"
       cx="246.84801"
       cy="253.6937"
       fx="246.84801"
       fy="253.6937"
       r="16.627798" />
    <radialGradient
       inkscape:collect="always"
       xlink:href="#linearGradient4154"
       id="radialGradient4174"
       gradientUnits="userSpaceOnUse"
       gradientTransform="matrix(1,0,0,0.25778,0,394.0318)"
       cx="63.996368"
       cy="530.88275"
       fx="63.996368"
       fy="530.88275"
       r="32.95863" />
    <filter
       inkscape:collect="always"
       id="filter4689">
      <feGaussianBlur
         inkscape:collect="always"
         stdDeviation="0.27949219"
         id="feGaussianBlur4691" />
    </filter>
    <filter
       inkscape:collect="always"
       id="filter4693">
      <feGaussianBlur
         inkscape:collect="always"
         stdDeviation="0.24269531"
         id="feGaussianBlur4695" />
    </filter>
    <filter
       inkscape:collect="always"
       id="filter4697">
      <feGaussianBlur
         inkscape:collect="always"
         stdDeviation="0.22412109"
         id="feGaussianBlur4699" />
    </filter>
    <filter
       inkscape:collect="always"
       id="filter4701">
      <feGaussianBlur
         inkscape:collect="always"
         stdDeviation="0.22419434"
         id="feGaussianBlur4703" />
    </filter>
    <filter
       inkscape:collect="always"
       id="filter4709">
      <feGaussianBlur
         inkscape:collect="always"
         stdDeviation="0.20661621"
         id="feGaussianBlur4711" />
    </filter>
    <filter
       inkscape:collect="always"
       id="filter4713">
      <feGaussianBlur
         inkscape:collect="always"
         stdDeviation="0.22426758"
         id="feGaussianBlur4715" />
    </filter>
    <radialGradient
       inkscape:collect="always"
       xlink:href="#linearGradient4717"
       id="radialGradient4723"
       cx="621"
       cy="301"
       fx="621"
       fy="301"
       r="154.5"
       gradientUnits="userSpaceOnUse" />
    <radialGradient
       inkscape:collect="always"
       xlink:href="#linearGradient4841"
       id="radialGradient4847"
       cx="245.17468"
       cy="143.66698"
       fx="245.17468"
       fy="143.66698"
       r="104.51264"
       gradientTransform="matrix(1.7645947,-0.297109,7.9491748e-2,0.4721195,-198.87963,148.68252)"
       gradientUnits="userSpaceOnUse" />
    <radialGradient
       inkscape:collect="always"
       xlink:href="#linearGradient4841"
       id="radialGradient4861"
       gradientUnits="userSpaceOnUse"
       gradientTransform="matrix(1.7645947,-0.297109,7.9491748e-2,0.4721195,-198.87963,148.68252)"
       cx="245.17468"
       cy="143.66698"
       fx="245.17468"
       fy="143.66698"
       r="104.51264" />
    <radialGradient
       inkscape:collect="always"
       xlink:href="#linearGradient4154"
       id="radialGradient4864"
       gradientUnits="userSpaceOnUse"
       gradientTransform="matrix(1.7547305,-5.1588377e-3,5.5715772e-4,0.189512,-45.845799,433.35427)"
       cx="63.996368"
       cy="530.88281"
       fx="63.996368"
       fy="530.88281"
       r="32.95863" />
    <linearGradient
       inkscape:collect="always"
       xlink:href="#linearGradient4887"
       id="linearGradient4893"
       x1="500"
       y1="508"
       x2="512.44775"
       y2="82"
       gradientUnits="userSpaceOnUse" />
    <linearGradient
       inkscape:collect="always"
       xlink:href="#linearGradient4907"
       id="linearGradient4915"
       x1="500"
       y1="508"
       x2="512.44775"
       y2="82"
       gradientUnits="userSpaceOnUse" />
    <linearGradient
       inkscape:collect="always"
       xlink:href="#linearGradient4899"
       id="linearGradient4923"
       x1="140.66206"
       y1="143.66698"
       x2="349.68732"
       y2="143.66698"
       gradientUnits="userSpaceOnUse" />
    <linearGradient
       inkscape:collect="always"
       xlink:href="#linearGradient4899"
       id="linearGradient4931"
       x1="140.66206"
       y1="143.66698"
       x2="349.68732"
       y2="143.66698"
       gradientUnits="userSpaceOnUse" />
    <radialGradient
       inkscape:collect="always"
       xlink:href="#linearGradient4841"
       id="radialGradient4937"
       gradientUnits="userSpaceOnUse"
       gradientTransform="matrix(1.7645947,-0.297109,7.9491748e-2,0.4721195,-198.87963,148.68252)"
       cx="245.17468"
       cy="143.66698"
       fx="245.17468"
       fy="143.66698"
       r="104.51264" />
    <radialGradient
       inkscape:collect="always"
       xlink:href="#linearGradient4841"
       id="radialGradient4948"
       gradientUnits="userSpaceOnUse"
       gradientTransform="matrix(1.7645947,-0.297109,7.9491748e-2,0.4721195,-198.87963,148.68252)"
       cx="245.17468"
       cy="143.66698"
       fx="245.17468"
       fy="143.66698"
       r="104.51264" />
    <linearGradient
       inkscape:collect="always"
       xlink:href="#linearGradient4899"
       id="linearGradient4950"
       gradientUnits="userSpaceOnUse"
       x1="140.66206"
       y1="143.66698"
       x2="349.68732"
       y2="143.66698" />
    <radialGradient
       inkscape:collect="always"
       xlink:href="#linearGradient4841"
       id="radialGradient4952"
       gradientUnits="userSpaceOnUse"
       gradientTransform="matrix(1.7645947,-0.297109,7.9491748e-2,0.4721195,-198.87963,148.68252)"
       cx="245.17468"
       cy="143.66698"
       fx="245.17468"
       fy="143.66698"
       r="104.51264" />
    <linearGradient
       inkscape:collect="always"
       xlink:href="#linearGradient4899"
       id="linearGradient4954"
       gradientUnits="userSpaceOnUse"
       x1="140.66206"
       y1="143.66698"
       x2="349.68732"
       y2="143.66698" />
    <radialGradient
       inkscape:collect="always"
       xlink:href="#linearGradient4841"
       id="radialGradient4956"
       gradientUnits="userSpaceOnUse"
       gradientTransform="matrix(1.7645947,-0.297109,7.9491748e-2,0.4721195,-198.87963,150.80384)"
       cx="245.17468"
       cy="143.66698"
       fx="245.17468"
       fy="143.66698"
       r="104.51264" />
    <linearGradient
       inkscape:collect="always"
       xlink:href="#linearGradient4899"
       id="linearGradient4958"
       gradientUnits="userSpaceOnUse"
       gradientTransform="translate(0,2.1213203)"
       x1="140.66206"
       y1="143.66698"
       x2="349.68732"
       y2="143.66698" />
    <radialGradient
       inkscape:collect="always"
       xlink:href="#linearGradient4841"
       id="radialGradient4960"
       gradientUnits="userSpaceOnUse"
       gradientTransform="matrix(1.7645947,-0.297109,7.9491748e-2,0.4721195,-198.87963,148.68252)"
       cx="245.17468"
       cy="143.66698"
       fx="245.17468"
       fy="143.66698"
       r="104.51264" />
    <linearGradient
       inkscape:collect="always"
       xlink:href="#linearGradient4899"
       id="linearGradient4962"
       gradientUnits="userSpaceOnUse"
       x1="140.66206"
       y1="143.66698"
       x2="349.68732"
       y2="143.66698" />
    <radialGradient
       inkscape:collect="always"
       xlink:href="#linearGradient4841"
       id="radialGradient4964"
       gradientUnits="userSpaceOnUse"
       gradientTransform="matrix(1.7645947,-0.297109,7.9491748e-2,0.4721195,-198.87963,148.68252)"
       cx="245.17468"
       cy="143.66698"
       fx="245.17468"
       fy="143.66698"
       r="104.51264" />
    <linearGradient
       inkscape:collect="always"
       xlink:href="#linearGradient4966"
       id="linearGradient4972"
       x1="542.5"
       y1="334.09967"
       x2="542.5"
       y2="257.43439"
       gradientUnits="userSpaceOnUse" />
    <inkscape:perspective
       id="perspective5013"
       inkscape:persp3d-origin="148 : 24.639999 : 1"
       inkscape:vp_z="296 : 36.959999 : 1"
       inkscape:vp_y="0 : 1000 : 0"
       inkscape:vp_x="0 : 36.959999 : 1"
       sodipodi:type="inkscape:persp3d" />
    <inkscape:perspective
       id="perspective5084"
       inkscape:persp3d-origin="95 : 45.333333 : 1"
       inkscape:vp_z="190 : 68 : 1"
       inkscape:vp_y="0 : 1000 : 0"
       inkscape:vp_x="0 : 68 : 1"
       sodipodi:type="inkscape:persp3d" />
    <linearGradient
       inkscape:collect="always"
       xlink:href="#linearGradient3566"
       id="linearGradient3572"
       x1="492.77176"
       y1="132.51852"
       x2="492.77176"
       y2="134.27342"
       gradientUnits="userSpaceOnUse"
       gradientTransform="matrix(1,0,0,1.6685383,9.3750002,-85.831423)" />
    <radialGradient
       inkscape:collect="always"
       xlink:href="#linearGradient4154"
       id="radialGradient3578"
       gradientUnits="userSpaceOnUse"
       gradientTransform="matrix(1.7547305,-5.1588377e-3,5.5715772e-4,0.189512,-45.845799,433.35427)"
       cx="63.996368"
       cy="530.88281"
       fx="63.996368"
       fy="530.88281"
       r="32.95863" />
  </defs>
  <metadata
     id="metadata7">
    <rdf:RDF>
      <cc:Work
         rdf:about="">
        <dc:format>image/svg+xml</dc:format>
        <dc:type
           rdf:resource="http://purl.org/dc/dcmitype/StillImage" />
        <dc:title />
      </cc:Work>
    </rdf:RDF>
  </metadata>
  <g
     inkscape:groupmode="layer"
     id="layer3"
     inkscape:label="Controller"
     style="display:inline"
     sodipodi:insensitive="true">
    <g
       transform="matrix(-1,0,0,1,1000.3494,-4.5732233)"
       style="display:inline;fill:url(#radialGradient4964);fill-opacity:1;stroke:url(#linearGradient4931);stroke-width:1;stroke-miterlimit:4;stroke-dasharray:none;stroke-opacity:1"
       id="g4851">
      <g
         id="g4943"
         style="fill:url(#radialGradient4960);stroke:url(#linearGradient4962)">
        <g
           transform="matrix(-1,0,0,1,1000.3494,2.1213203)"
           style="display:inline;fill:url(#radialGradient4952);fill-opacity:1;stroke:url(#linearGradient4954);stroke-width:1;stroke-miterlimit:4;stroke-dasharray:none;stroke-opacity:1"
           id="g4762">
          <path
             sodipodi:nodetypes="cssssssssssssccsssssssscc"
             d="m 145.19609,174.21869 c -3.77331,-0.72031 -4.26587,-3.85881 -3.95767,-8.86071 0.4115,-6.67852 1.13955,-7.96723 2.69974,-10.07496 2.79288,-3.77298 7.30907,-7.44863 10.16955,-9.56651 2.82164,-2.0891 5.72767,-4.10117 8.73971,-6.039 3.01852,-1.94202 6.04513,-3.76162 9.09498,-5.48408 3.13148,-1.76855 6.27547,-3.42172 9.45025,-4.96177 3.23987,-1.57164 6.50962,-3.03736 9.80553,-4.37421 3.33887,-1.35426 6.71751,-2.60471 10.12528,-3.72133 3.42251,-1.12145 6.87034,-2.11808 10.37396,-3.00318 3.48795,-0.88114 7.04281,-1.6348 10.62266,-2.28503 3.53487,-0.64207 7.09365,-1.17938 10.72924,-1.59952 3.56215,-0.41166 7.20203,-0.71237 10.87134,-0.91402 1.7696,-0.0973 71.61582,-0.21912 95.94883,-0.21912 6.08301,1.375 12.37045,11.14454 7.6863,17.76954 -25.68415,0 -99.40872,0.14001 -101.27658,0.25173 -3.87306,0.23165 -7.71505,0.5771 -11.475,1.05 -3.83746,0.48265 -7.59385,1.0999 -11.325,1.8375 -3.77863,0.74698 -7.53088,1.61276 -11.2125,2.625 -3.69817,1.01679 -7.33744,2.1617 -10.95,3.45 -3.59699,1.28275 -7.16324,2.71924 -10.6875,4.275 -3.47892,1.53574 -6.93023,3.21953 -10.35,5.025 -3.35107,1.76919 -6.66964,3.66832 -9.975,5.7 -3.2192,1.97873 -6.41387,4.06905 -9.6,6.3 -5.8138,4.31804 -10.07902,8.01481 -15.50812,12.81967 z"
             style="display:inline;fill:url(#radialGradient4948);fill-opacity:1;fill-rule:evenodd;stroke:url(#linearGradient4950);stroke-width:1;stroke-linecap:butt;stroke-linejoin:miter;stroke-miterlimit:4;stroke-dasharray:none;stroke-opacity:1"
             id="path4756"
             inkscape:connector-curvature="0" />
        </g>
        <path
           id="path4853"
           style="display:inline;fill:url(#radialGradient4956);fill-opacity:1;fill-rule:evenodd;stroke:url(#linearGradient4958);stroke-width:1;stroke-linecap:butt;stroke-linejoin:miter;stroke-miterlimit:4;stroke-dasharray:none;stroke-opacity:1"
           d="m 145.19609,176.34001 c -3.77331,-0.72031 -4.26587,-3.85881 -3.95767,-8.86071 0.4115,-6.67852 1.13955,-7.96723 2.69974,-10.07496 2.79288,-3.77298 7.30907,-7.44863 10.16955,-9.56651 2.82164,-2.0891 5.72767,-4.10117 8.73971,-6.039 3.01852,-1.94202 6.04513,-3.76162 9.09498,-5.48408 3.13148,-1.76855 6.27547,-3.42172 9.45025,-4.96177 3.23987,-1.57164 6.50962,-3.03736 9.80553,-4.37421 3.33887,-1.35426 6.71751,-2.60471 10.12528,-3.72133 3.42251,-1.12145 6.87034,-2.11808 10.37396,-3.00318 3.48795,-0.88114 7.04281,-1.6348 10.62266,-2.28503 3.53487,-0.64207 7.09365,-1.17938 10.72924,-1.59952 3.56215,-0.41166 7.20203,-0.71237 10.87134,-0.91402 1.7696,-0.0973 71.61582,-0.21912 95.94883,-0.21912 6.08301,1.375 12.37045,11.14454 7.6863,17.76954 -25.68415,0 -99.40872,0.14001 -101.27658,0.25173 -3.87306,0.23165 -7.71505,0.5771 -11.475,1.05 -3.83746,0.48265 -7.59385,1.0999 -11.325,1.8375 -3.77863,0.74698 -7.53088,1.61276 -11.2125,2.625 -3.69817,1.01679 -7.33744,2.1617 -10.95,3.45 -3.59699,1.28275 -7.16324,2.71924 -10.6875,4.275 -3.47892,1.53574 -6.93023,3.21953 -10.35,5.025 -3.35107,1.76919 -6.66964,3.66832 -9.975,5.7 -3.2192,1.97873 -6.41387,4.06905 -9.6,6.3 -5.8138,4.31804 -10.07902,8.01481 -15.50812,12.81967 z"
           sodipodi:nodetypes="cssssssssssssccsssssssscc"
           inkscape:connector-curvature="0" />
      </g>
    </g>
    <path
       sodipodi:nodetypes="csssssssssssssssssssssssssssssssssssssssssssssssssssssssssssssssssssssssssssssssssssssssssssssssssssssssssssssssc"
       id="path2383"
       d="m 716.44579,130.79902 c -11.50175,0.002 -466.43087,0.11406 -470.16658,0.3375 -3.87306,0.23165 -7.71505,0.5771 -11.475,1.05 -3.83746,0.48265 -7.59385,1.0999 -11.325,1.8375 -3.77863,0.74698 -7.53088,1.61276 -11.2125,2.625 -3.69817,1.01679 -7.33744,2.1617 -10.95,3.45 -3.59699,1.28275 -7.16324,2.71924 -10.6875,4.275 -3.47892,1.53574 -6.93023,3.21953 -10.35,5.025 -3.35107,1.76919 -6.66964,3.66832 -9.975,5.7 -3.2192,1.97873 -6.41387,4.06905 -9.6,6.3 -3.17928,2.22615 -6.24668,4.53757 -9.225,6.9375 -3.01931,2.43297 -5.96436,4.93799 -8.775,7.5375 -2.84378,2.63015 -5.54704,5.34934 -8.175,8.1375 -2.65444,2.81626 -5.21801,5.7354 -7.65,8.7 -2.45286,2.99005 -4.78825,6.02227 -7.0125,9.15 -2.23987,3.14969 -4.36935,6.39919 -6.375,9.675 -2.01676,3.29394 -3.92248,6.64228 -5.7,10.05 -1.78487,3.42182 -3.44631,6.9024 -4.9875,10.425 -1.54621,3.53408 -2.939041,7.10353 -4.237501,10.725 -1.3013,3.6294 -2.51253,7.28449 -3.5625,10.9875 -1.05128,3.70763 -1.94069,7.44533 -2.7375,11.2125 -0.79711,3.76861 -1.48507,7.58604 -2.025,11.4 -0.5398,3.81301 -0.95726,7.6309 -1.2375,11.475 -0.27985,3.83885 -0.43151,7.69435 -0.45,11.55 -0.01845,3.84721 0.09325,7.70015 0.3375,11.55 0.24349,3.83789 0.61796,7.686 1.125,11.5125 0.50477,3.80942 1.14411,7.57816 1.9125,11.3625 0.76424,3.76388 1.67258,7.5245 2.7,11.25 1.02036,3.69989 2.16772,7.3763 3.45,11.025 1.27159,3.61828 2.668551,7.20754 4.200001,10.7625 1.51592,3.51887 3.17723,7.01831 4.95,10.4625 1.75208,3.404 3.61989,6.76866 5.625,10.0875 1.97765,3.2734 4.07413,6.49615 6.3,9.675 2.22615,3.17928 4.53757,6.2467 6.9375,9.225 2.43297,3.01931 4.93798,5.96436 7.5375,8.775 2.63015,2.84378 5.34934,5.54702 8.1375,8.175 2.81626,2.65444 5.7354,5.21802 8.7,7.65 2.99005,2.45286 6.02227,4.78825 9.15,7.0125 3.14969,2.23987 6.3992,4.36934 9.675,6.375 3.29394,2.01676 6.64228,3.92248 10.05,5.7 3.42182,1.78488 6.9024,3.44632 10.425,4.9875 3.53408,1.54621 7.10353,2.93903 10.725,4.2375 3.6294,1.3013 7.28449,2.51254 10.9875,3.5625 3.70763,1.05128 7.44533,1.94069 11.2125,2.7375 3.76861,0.7971 7.58604,1.48507 11.4,2.025 3.81301,0.5398 7.6309,0.95725 11.475,1.2375 3.83885,0.27985 7.69435,0.43151 11.55,0.45 3.84721,0.0184 7.70015,-0.0933 11.55,-0.3375 3.83789,-0.24349 7.686,-0.61795 11.5125,-1.125 3.80942,-0.50477 7.57816,-1.1441 11.3625,-1.9125 3.76388,-0.76423 7.5245,-1.67258 11.25,-2.7 3.69989,-1.02035 7.3763,-2.16773 11.025,-3.45 3.61828,-1.27159 7.20756,-2.66852 10.7625,-4.2 3.51887,-1.51591 7.01831,-3.17723 10.4625,-4.95 3.404,-1.75207 6.76866,-3.61987 10.0875,-5.625 1.63669,-0.98882 6.50369,-4.9827 9.675,-5.4375 3.21366,-0.46087 283.94715,-1.8332 287.20408,-0.8625 l 3.55873,1.06066 c 1.98952,0.59296 6.02407,3.29948 9.30377,5.23934 3.33745,1.97402 6.6835,3.87293 10.0875,5.625 3.44417,1.77277 6.94363,3.43409 10.4625,4.95 3.55495,1.53148 7.14422,2.92841 10.7625,4.2 3.64868,1.28227 7.32511,2.42965 11.025,3.45 3.7255,1.02742 7.44862,1.93577 11.2125,2.7 3.78433,0.7684 7.59058,1.40773 11.4,1.9125 3.8265,0.50705 7.67461,0.88151 11.5125,1.125 3.84988,0.24425 7.70279,0.35594 11.55,0.3375 3.85566,-0.0185 7.71115,-0.17015 11.55,-0.45 3.84409,-0.28025 7.66199,-0.6977 11.475,-1.2375 3.814,-0.53993 7.59389,-1.2279 11.3625,-2.025 3.76721,-0.79681 7.54237,-1.68622 11.25,-2.7375 3.703,-1.04996 7.3581,-2.2612 10.9875,-3.5625 3.62146,-1.29847 7.19092,-2.69129 10.725,-4.2375 3.5226,-1.54118 7.00318,-3.20262 10.425,-4.9875 3.40775,-1.77752 6.75606,-3.68324 10.05,-5.7 3.27577,-2.00566 6.48781,-4.13513 9.6375,-6.375 3.12772,-2.22425 6.19745,-4.55964 9.1875,-7.0125 2.96462,-2.43198 5.88374,-4.99556 8.7,-7.65 2.78819,-2.62798 5.46985,-5.33122 8.1,-8.175 2.59955,-2.81064 5.14204,-5.75569 7.575,-8.775 2.39993,-2.9783 4.71134,-6.04572 6.9375,-9.225 2.22584,-3.17885 4.32235,-6.4016 6.3,-9.675 2.00509,-3.31884 3.87293,-6.6835 5.625,-10.0875 1.77274,-3.44419 3.43408,-6.94363 4.95,-10.4625 1.53149,-3.55496 2.92841,-7.14422 4.2,-10.7625 1.28228,-3.6487 2.42964,-7.32511 3.45,-11.025 1.02743,-3.7255 1.93576,-7.48612 2.7,-11.25 0.76841,-3.78434 1.40773,-7.55308 1.9125,-11.3625 0.50705,-3.8265 0.88151,-7.67461 1.125,-11.5125 0.24422,-3.84985 0.35596,-7.70279 0.3375,-11.55 -0.0185,-3.85565 -0.17015,-7.71115 -0.45,-11.55 -0.28024,-3.8441 -0.6977,-7.66199 -1.2375,-11.475 -0.53992,-3.81396 -1.22789,-7.63139 -2.025,-11.4 -0.79681,-3.76717 -1.72372,-7.50487 -2.775,-11.2125 -1.05,-3.70301 -2.2237,-7.3581 -3.525,-10.9875 -1.29846,-3.62147 -2.72879,-7.19092 -4.275,-10.725 -1.54122,-3.5226 -3.20263,-7.00318 -4.9875,-10.425 -1.77749,-3.40772 -3.64574,-6.75606 -5.6625,-10.05 -2.00562,-3.27581 -4.13514,-6.52531 -6.375,-9.675 -2.22425,-3.12773 -4.55964,-6.15995 -7.0125,-9.15 -2.432,-2.9646 -4.99556,-5.88374 -7.65,-8.7 -2.62796,-2.78816 -5.36872,-5.50735 -8.2125,-8.1375 -2.81063,-2.59951 -5.71819,-5.10453 -8.7375,-7.5375 -2.97829,-2.39993 -6.04572,-4.71135 -9.225,-6.9375 -3.18614,-2.23095 -6.3808,-4.32127 -9.6,-6.3 -3.30535,-2.03168 -6.66143,-3.93081 -10.0125,-5.7 -3.41981,-1.80547 -6.83358,-3.48926 -10.3125,-5.025 -3.52424,-1.55576 -7.09051,-2.99225 -10.6875,-4.275 -3.61254,-1.2883 -7.28933,-2.43321 -10.9875,-3.45 -3.6816,-1.01224 -7.39637,-1.87802 -11.175,-2.625 -3.73118,-0.7376 -7.52504,-1.35485 -11.3625,-1.8375 -3.75991,-0.4729 -7.56444,-0.81835 -11.4375,-1.05 -3.36701,-0.20138 -36.85712,-0.3375 -37.275,-0.3375 z"
       style="fill:url(#linearGradient4915);fill-opacity:1;fill-rule:evenodd;stroke:url(#linearGradient4893);stroke-width:5;stroke-linecap:butt;stroke-linejoin:miter;stroke-miterlimit:4;stroke-dasharray:none;stroke-opacity:1"
       inkscape:connector-curvature="0" />
    <circle
       style="fill:url(#radialGradient4049);fill-opacity:1;stroke:url(#radialGradient4107);stroke-width:3.33333325;stroke-miterlimit:4;stroke-dasharray:none;stroke-opacity:1"
       id="path3212"
       transform="matrix(1.1486534,0,0,1.1486534,52.05556,-44.596021)"
       cx="170"
       cy="300"
       r="96" />
    <circle
       style="fill:#777f82;fill-opacity:1;stroke:url(#radialGradient4723);stroke-width:5;stroke-miterlimit:4;stroke-dasharray:none;stroke-opacity:1"
       id="path3214"
       transform="translate(119.05204,7.3806597e-7)"
       cx="621"
       cy="301"
       r="152" />
    <rect
       style="fill:#f4f4f1;fill-opacity:1;stroke:#fdfdfa;stroke-width:0.99999994;stroke-miterlimit:4;stroke-dasharray:none;stroke-opacity:1"
       id="rect3217"
       width="159"
       height="65"
       x="235.90645"
       y="652.72327"
       rx="36"
       transform="matrix(0.7071068,-0.7071068,0.7071068,0.7071068,0,0)" />
    <use
       x="0"
       y="0"
       xlink:href="#rect3217"
       id="use3219"
       transform="translate(80,75)"
       width="800"
       height="600" />
    <circle
       style="fill:#1a1a1a;fill-opacity:1;stroke:#ebebe8;stroke-width:0.95238096;stroke-miterlimit:4;stroke-dasharray:none;stroke-opacity:1"
       id="path3235"
       transform="matrix(1.05,0,0,1.05,103.92704,-17.899999)"
       cx="542.5"
       cy="298"
       r="27.5" />
    <circle
       transform="matrix(0.95,0,0,0.95,158.17704,11.900001)"
       id="path3237"
       style="fill:url(#linearGradient4972);fill-opacity:1;stroke:#00ab7f;stroke-width:2.10526323;stroke-miterlimit:4;stroke-dasharray:none;stroke-opacity:1"
       cx="542.5"
       cy="298"
       r="27.5" />
    <circle
       transform="matrix(1.05,0,0,1.05,184.42704,58.100001)"
       id="path3245"
       style="fill:#1a1a1a;fill-opacity:1;stroke:#ebebe8;stroke-width:0.95238096;stroke-miterlimit:4;stroke-dasharray:none;stroke-opacity:1"
       cx="542.5"
       cy="298"
       r="27.5" />
    <circle
       style="fill:#ffbb58;fill-opacity:1;stroke:#ba853d;stroke-width:2.10526323;stroke-miterlimit:4;stroke-dasharray:none;stroke-opacity:1"
       id="path3247"
       transform="matrix(0.95,0,0,0.95,238.67704,87.900001)"
       cx="542.5"
       cy="298"
       r="27.5" />
    <circle
       style="fill:#1a1a1a;fill-opacity:1;stroke:#ebebe8;stroke-width:0.95238096;stroke-miterlimit:4;stroke-dasharray:none;stroke-opacity:1"
       id="path3251"
       transform="matrix(1.05,0,0,1.05,251.92704,-9.8999993)"
       cx="542.5"
       cy="298"
       r="27.5" />
    <circle
       transform="matrix(0.95,0,0,0.95,306.17704,19.900001)"
       id="path3253"
       style="fill:#ff4856;fill-opacity:1;stroke:#c72b3e;stroke-width:2.10526323;stroke-miterlimit:4;stroke-dasharray:none;stroke-opacity:1"
       cx="542.5"
       cy="298"
       r="27.5" />
    <circle
       transform="matrix(1.05,0,0,1.05,170.92704,-85.399999)"
       id="path3257"
       style="fill:#1a1a1a;fill-opacity:1;stroke:#ebebe8;stroke-width:0.95238096;stroke-miterlimit:4;stroke-dasharray:none;stroke-opacity:1"
       cx="542.5"
       cy="298"
       r="27.5" />
    <circle
       style="fill:#0075fa;fill-opacity:1;stroke:#0054b3;stroke-width:2.10526323;stroke-miterlimit:4;stroke-dasharray:none;stroke-opacity:1"
       id="path3259"
       transform="matrix(0.95,0,0,0.95,225.17704,-55.599999)"
       cx="542.5"
       cy="298"
       r="27.5" />
    <g
       id="g3574"
       transform="translate(14,0)">
      <rect
         transform="matrix(0.7071068,-0.7071068,0.7071068,0.7071068,0,0)"
         rx="7.3457208"
         y="523.89368"
         x="32.659458"
         height="19.478285"
         width="68.390419"
         id="rect3307"
         style="fill:#1a1a1a;fill-opacity:1;stroke:#e2e2df;stroke-width:1.83643019;stroke-miterlimit:4;stroke-dasharray:none;stroke-opacity:1" />
      <rect
         transform="matrix(0.7071068,-0.7071068,0.7071068,0.7071068,0,0)"
         style="fill:url(#radialGradient3578);fill-opacity:1;stroke:#252a2a;stroke-width:1.21500003;stroke-miterlimit:4;stroke-dasharray:none;stroke-opacity:1"
         id="rect3309"
         width="64.702263"
         height="15.777154"
         x="34.395237"
         y="525.7442"
         rx="5.9500341" />
    </g>
    <path
       style="fill:#1a1a1a;fill-opacity:1;stroke:#8e979e;stroke-width:0.93806696;stroke-miterlimit:4;stroke-dasharray:none;stroke-opacity:1"
       d="m 230.57544,224.95464 c -4.45447,0 -8.04056,3.5861 -8.04056,8.04058 l 0,42.21302 -42.21302,0 c -4.45448,0 -8.04058,3.58609 -8.04058,8.04056 l 0,33.5024 c 0,4.45447 3.5861,8.04056 8.04058,8.04056 l 42.21302,0 0,42.21302 c 0,4.45448 3.58609,8.04058 8.04056,8.04058 l 33.5024,0 c 4.45447,0 8.04056,-3.5861 8.04056,-8.04058 l 0,-42.21302 42.21302,0 c 4.45448,0 8.04058,-3.58609 8.04058,-8.04056 l 0,-33.5024 c 0,-4.45447 -3.5861,-8.04056 -8.04058,-8.04056 l -42.21302,0 0,-42.21302 c 0,-4.45448 -3.58609,-8.04058 -8.04056,-8.04058 l -33.5024,0 z"
       id="rect3221"
       sodipodi:nodetypes="ccccccccccccccccccccc"
       inkscape:connector-curvature="0" />
    <path
       sodipodi:nodetypes="ccccccccccccccccccccc"
       id="path3319"
       d="m 233.57956,231.91492 c -3.52838,0 -6.36888,3.21405 -6.36888,7.20644 l 0,40.57323 -41.37463,0 c -3.52835,0 -6.36888,3.21405 -6.36888,7.20642 l 0,26.15927 c 0,3.99236 2.84053,7.20641 6.36888,7.20641 l 41.37463,0 0,40.79886 c 0,3.99238 2.8405,7.20645 6.36888,7.20645 l 26.85603,0 c 3.52837,0 6.36887,-3.21407 6.36887,-7.20645 l 0,-40.79886 42.18366,0 c 3.52834,0 6.36887,-3.21405 6.36887,-7.20641 l 0,-26.15927 c 0,-3.99237 -2.84053,-7.20642 -6.36887,-7.20642 l -41.5068,0 0,-40.57323 c 0,-3.99239 -2.84052,-7.20644 -6.36888,-7.20644 l -27.53288,0 z"
       style="fill:#4d5254;fill-opacity:1;stroke:#63686b;stroke-width:1.91442239;stroke-miterlimit:4;stroke-dasharray:none;stroke-opacity:1"
       inkscape:connector-curvature="0" />
    <path
       style="fill:url(#radialGradient4142);fill-opacity:1;stroke:#4f5457;stroke-width:2.06114793;stroke-miterlimit:4;stroke-opacity:0.8627451"
       d="m 231.71636,267.52693 c -1.4158,-2.83982 0.84907,-7.30807 0.84907,-7.30807 l 4.71939,-9.46605 4.71934,-9.46604 c 0,0 1.88776,-3.65607 4.71938,-3.65607 2.83162,0 4.71935,3.65607 4.71935,3.65607 l 4.71937,9.46604 4.71937,9.46605 c 0,0 2.55158,4.30223 1.13576,7.14205 -1.41578,2.83984 -5.85513,2.32402 -5.85513,2.32402 l -9.43872,0 -9.43872,0 c 0,0 -4.15264,0.6818 -5.56846,-2.158 z"
       id="path3924"
       sodipodi:nodetypes="ccccsccczcccz"
       inkscape:connector-curvature="0" />
    <use
       x="0"
       y="0"
       xlink:href="#path3924"
       id="use3931"
       transform="matrix(1,0,0,-1,0,598.76219)"
       width="1000"
       height="600" />
    <use
       x="0"
       y="0"
       xlink:href="#path3924"
       id="use3933"
       transform="matrix(0,-1,1,0,-52.533083,546.22911)"
       width="1000"
       height="600" />
    <use
       x="0"
       y="0"
       xlink:href="#use3931"
       id="use3935"
       transform="matrix(0,-1,1,0,-52.533083,546.22911)"
       width="1000"
       height="600" />
    <circle
       style="fill:url(#radialGradient4130);fill-opacity:1;stroke:#4f5457;stroke-width:1.45000005;stroke-miterlimit:4;stroke-dasharray:none;stroke-opacity:0.86170206"
       id="path3943"
       transform="matrix(1.6288945,0,0,1.6288945,-251.11585,-187.53276)"
       cx="306.00046"
       cy="299.30283"
       r="10.429825" />
    <g
       id="g4168"
       transform="translate(112.9467,0)">
      <rect
         style="fill:#1a1a1a;fill-opacity:1;stroke:#e2e2df;stroke-width:1.83643019;stroke-miterlimit:4;stroke-dasharray:none;stroke-opacity:1"
         id="rect4170"
         width="68.390419"
         height="19.478285"
         x="29.909458"
         y="521.14368"
         rx="7.3457208"
         transform="matrix(0.7071068,-0.7071068,0.7071068,0.7071068,0,0)" />
      <rect
         rx="5.9500341"
         y="522.9942"
         x="31.645237"
         height="15.777154"
         width="64.702263"
         id="rect4172"
         style="fill:url(#radialGradient4174);fill-opacity:1;stroke:#252a2a;stroke-width:1.21500003;stroke-miterlimit:4;stroke-dasharray:none;stroke-opacity:1"
         transform="matrix(0.7071068,-0.7071068,0.7071068,0.7071068,0,0)" />
    </g>
    <rect
       style="fill:url(#linearGradient3572);fill-opacity:1;stroke:none;stroke-width:0.5;stroke-miterlimit:4;stroke-dasharray:none;stroke-opacity:1;enable-background:new"
       id="rect3564"
       width="36.5"
       height="8.3873806"
       x="481.75"
       y="128.3867"
       rx="0.69999999"
       ry="1.1679767" />
  </g>
  <g
     inkscape:groupmode="layer"
     id="layer1"
     inkscape:label="Cursors"
     style="display:inline;opacity:0.55899999">
    <path
       style="opacity:0.50199998;fill:#e60000;fill-opacity:1;fill-rule:evenodd;stroke:none;stroke-width:1px;stroke-linecap:butt;stroke-linejoin:miter;stroke-opacity:1"
       d="m 745.99765,295.94408 93.3381,-107.48023 42.42641,59.39697 9.89949,69.29647 -36.76955,81.31728 z"
       id="btnA"
       inkscape:connector-curvature="0"
       inkscape:label="#btnA" />
    <path
       style="opacity:0.50199998;fill:#e60000;fill-opacity:1;fill-rule:evenodd;stroke:none;stroke-width:1px;stroke-linecap:butt;stroke-linejoin:miter;stroke-opacity:1"
       d="M 744,294.5 838,186 776.78657,152.39095 707.00214,152.15114 639.5,185.5 Z"
       id="btnX"
       inkscape:connector-curvature="0"
       sodipodi:nodetypes="cccccc" />
    <path
       style="opacity:0.48999999;fill:#e60000;fill-opacity:1;fill-rule:evenodd;stroke:none;stroke-width:1px;stroke-linecap:butt;stroke-linejoin:miter;stroke-opacity:1"
       d="M 744.5,297.5 854,401 788.5,445.5 709,450.5 635.5,412 Z"
       id="btnB"
       inkscape:connector-curvature="0" />
    <path
       style="opacity:0.51000001;fill:#e60000;fill-opacity:1;fill-rule:evenodd;stroke:none;stroke-width:1px;stroke-linecap:butt;stroke-linejoin:miter;stroke-opacity:1"
       d="M 742.5,296.5 633,411 l -42.5,-81 3,-74 44,-69 z"
       id="btnY"
       inkscape:connector-curvature="0"
       sodipodi:nodetypes="cccccc" />
    <path
       style="opacity:0.494;fill:#e60000;fill-opacity:1;fill-rule:evenodd;stroke:none;stroke-width:1px;stroke-linecap:butt;stroke-linejoin:miter;stroke-opacity:1"
       d="m 400,291 0,108 80,1 1,-110 z"
       id="btnSELECT"
       inkscape:connector-curvature="0" />
    <path
       style="opacity:0.51700003;fill:#e60000;fill-opacity:1;fill-rule:evenodd;stroke:none;stroke-width:1px;stroke-linecap:butt;stroke-linejoin:miter;stroke-opacity:1;enable-background:new"
       d="m 489.49769,291.00002 0,108 80,1 1,-110 z"
       id="btnSTART"
       inkscape:connector-curvature="0" />
    <path
       style="opacity:0.50199998;fill:#e60000;fill-opacity:1;fill-rule:evenodd;stroke:none;stroke-width:1px;stroke-linecap:butt;stroke-linejoin:miter;stroke-opacity:1"
       d="m 647,76 0,89 58.92404,-19.41217 57.84443,-2.10745 L 881,195 877,79 Z"
       id="btnRT"
       inkscape:connector-curvature="0"
       sodipodi:nodetypes="ccccccc" />
    <path
       style="opacity:0.50199998;fill:#e60003;fill-opacity:1;fill-rule:evenodd;stroke:none;stroke-width:1px;stroke-linecap:butt;stroke-linejoin:miter;stroke-opacity:1;enable-background:new"
       d="m 387.00004,80.00116 1,84 241.99996,-2 0,-85 z"
       id="btnLT"
       inkscape:connector-curvature="0"
       sodipodi:nodetypes="ccccc" />
    <circle
       style="opacity:0.494;fill:#e60003;fill-opacity:1"
       id="dirCenter"
       cx="247.52744"
       cy="299.99194"
       r="0.25" />
  </g>
  <g
     inkscape:groupmode="layer"
     id="layer4"
     inkscape:label="Text"
     style="display:inline"
     sodipodi:insensitive="true">
    <flowRoot
       xml:space="preserve"
       id="flowRoot4249"
       style="font-size:16px;font-style:normal;font-variant:normal;font-weight:normal;font-stretch:normal;text-align:start;line-height:125%;writing-mode:lr-tb;text-anchor:start;fill:#474b4c;fill-opacity:1;stroke:none;stroke-width:1px;stroke-linecap:butt;stroke-linejoin:miter;stroke-opacity:1;filter:url(#filter4689);font-family:Arial;-inkscape-font-specification:Arial"
       transform="translate(25.5,0)"><flowRegion
         id="flowRegion4251"><rect
           id="rect4253"
           width="74.5"
           height="30"
           x="384.5"
           y="367.5"
           style="fill:#474b4c;fill-opacity:1;stroke:none;stroke-opacity:1" /></flowRegion><flowPara
         id="flowPara4255"
         style="font-style:italic;font-variant:normal;font-weight:normal;font-stretch:normal;fill:#474b4c;fill-opacity:1;stroke:none;stroke-opacity:1;font-family:Arial;-inkscape-font-specification:Arial Italic">SELECT</flowPara></flowRoot>    <flowRoot
       xml:space="preserve"
       id="flowRoot4669"
       style="font-size:16px;font-style:italic;font-variant:normal;font-weight:normal;font-stretch:normal;text-align:start;line-height:125%;writing-mode:lr-tb;text-anchor:start;fill:#474b4c;fill-opacity:1;stroke:none;stroke-width:1px;stroke-linecap:butt;stroke-linejoin:miter;stroke-opacity:1;display:inline;filter:url(#filter4693);font-family:Arial;-inkscape-font-specification:Arial Italic"
       transform="translate(14,-0.7071068)"><flowRegion
         id="flowRegion4671"><rect
           id="rect4673"
           width="69.650017"
           height="20.152544"
           x="490.73212"
           y="368.06897"
           style="font-style:italic;font-variant:normal;font-weight:normal;font-stretch:normal;fill:#474b4c;fill-opacity:1;font-family:Arial;-inkscape-font-specification:Arial Italic" /></flowRegion><flowPara
         id="flowPara4675"
         style="font-size:16px;font-style:italic;font-variant:normal;font-weight:normal;font-stretch:normal;fill:#474b4c;fill-opacity:1;font-family:Arial;-inkscape-font-specification:Arial Italic">START</flowPara></flowRoot>    <flowRoot
       xml:space="preserve"
       id="flowRoot4186"
       style="font-size:30px;font-style:normal;font-variant:normal;font-weight:900;font-stretch:normal;text-align:start;line-height:125%;writing-mode:lr-tb;text-anchor:start;fill:#f7f7f4;fill-opacity:1;stroke:none;stroke-width:1px;stroke-linecap:butt;stroke-linejoin:miter;stroke-opacity:1;display:inline;filter:url(#filter4713);font-family:Arial Black;-inkscape-font-specification:Arial Black Heavy"
       transform="matrix(0.8,0,0,0.8,178.84196,53.480205)"><flowRegion
         id="flowRegion4188"><rect
           id="rect4190"
           width="42.426407"
           height="37.476658"
           x="839.33575"
           y="246.80016"
           style="font-size:30px;font-style:normal;font-variant:normal;font-weight:900;font-stretch:normal;text-align:start;line-height:125%;writing-mode:lr-tb;text-anchor:start;fill:#f7f7f4;fill-opacity:1;font-family:Arial Black;-inkscape-font-specification:Arial Black Heavy" /></flowRegion><flowPara
         id="flowPara4192">A</flowPara></flowRoot>    <flowRoot
       xml:space="preserve"
       id="flowRoot4194"
       style="font-size:30px;font-style:normal;font-variant:normal;font-weight:900;font-stretch:normal;text-align:start;line-height:125%;writing-mode:lr-tb;text-anchor:start;fill:#f7f7f4;fill-opacity:1;stroke:none;stroke-width:1px;stroke-linecap:butt;stroke-linejoin:miter;stroke-opacity:1;display:inline;filter:url(#filter4709);font-family:Arial Black;-inkscape-font-specification:Arial Black Heavy"
       transform="matrix(0.8,0,0,0.8,141.21719,80.844545)"><flowRegion
         id="flowRegion4196"><rect
           id="rect4198"
           width="44.547726"
           height="40.658642"
           x="695.08594"
           y="388.92862"
           style="font-size:30px;font-style:normal;font-variant:normal;font-weight:900;font-stretch:normal;text-align:start;line-height:125%;writing-mode:lr-tb;text-anchor:start;fill:#f7f7f4;fill-opacity:1;font-family:Arial Black;-inkscape-font-specification:Arial Black Heavy" /></flowRegion><flowPara
         id="flowPara4200">B</flowPara></flowRoot>    <flowRoot
       xml:space="preserve"
       id="flowRoot4202"
       style="font-size:30px;font-style:normal;font-variant:normal;font-weight:900;font-stretch:normal;text-align:start;line-height:125%;writing-mode:lr-tb;text-anchor:start;fill:#f7f7f4;fill-opacity:1;stroke:none;stroke-width:1px;stroke-linecap:butt;stroke-linejoin:miter;stroke-opacity:1;display:inline;filter:url(#filter4701);font-family:Arial Black;-inkscape-font-specification:Arial Black Heavy"
       transform="matrix(0.8,0,0,0.8,125.0875,66.207045)"><flowRegion
         id="flowRegion4204"><rect
           id="rect4206"
           width="39.244427"
           height="35.001785"
           x="614.82935"
           y="315.74307"
           style="font-size:30px;font-style:normal;font-variant:normal;font-weight:900;font-stretch:normal;text-align:start;line-height:125%;writing-mode:lr-tb;text-anchor:start;fill:#f7f7f4;fill-opacity:1;font-family:Arial Black;-inkscape-font-specification:Arial Black Heavy" /></flowRegion><flowPara
         id="flowPara4208">Y</flowPara></flowRoot>    <flowRoot
       xml:space="preserve"
       id="flowRoot4210"
       style="font-size:30px;font-style:normal;font-variant:normal;font-weight:900;font-stretch:normal;text-align:start;line-height:125%;writing-mode:lr-tb;text-anchor:start;fill:#f7f7f4;fill-opacity:1;stroke:none;stroke-width:1px;stroke-linecap:butt;stroke-linejoin:miter;stroke-opacity:1;display:inline;filter:url(#filter4697);font-family:Arial Black;-inkscape-font-specification:Arial Black Heavy"
       transform="matrix(0.8,0,0,0.8,155.28437,37.707045)"><flowRegion
         id="flowRegion4212"><rect
           id="rect4214"
           width="44.547726"
           height="39.59798"
           x="765.79663"
           y="173.26106"
           style="font-size:30px;font-style:normal;font-variant:normal;font-weight:900;font-stretch:normal;text-align:start;line-height:125%;writing-mode:lr-tb;text-anchor:start;fill:#f7f7f4;fill-opacity:1;font-family:Arial Black;-inkscape-font-specification:Arial Black Heavy" /></flowRegion><flowPara
         id="flowPara4216">X</flowPara></flowRoot>  </g>
</svg>
